<svg width="34" height="31" viewBox="0 0 34 31" fill="none" xmlns="http://www.w3.org/2000/svg">
<g clip-path="url(#clip0_169_218)">
<path fill-rule="evenodd" clip-rule="evenodd" d="M2.87692 2.57523C4.70769 0.874608 6.94266 0 9.58182 0C13.0769 0 15.4308 1.48197 16.8098 4.51881L17.0238 4.98041L17.2378 4.51881C18.6168 1.48197 20.9706 0 24.4657 0C27.0811 0 29.3399 0.874608 31.1706 2.57523C33.0727 4.37304 34.0476 6.60815 34.0476 9.23197C34.0476 11.127 33.6671 13.0462 32.8825 14.9655H28.1986L25.3217 7.36128L22.6587 19.4357L20.9944 14.3339H16.4769L13.5049 4.71317L11.2462 18.4397L8.36923 7.79859L6.18182 14.3339H0.927273C0.309091 12.6089 0 10.884 0 9.20768C0 6.60815 0.974825 4.37304 2.87692 2.57523ZM32.0504 16.6904H27.0098L25.6783 12.9005L22.8727 25.4122L19.7105 16.0588H15.1455L13.8853 11.8558L11.4839 26.4326L8.13147 13.8237L7.60839 16.0588H1.64056C3.78042 20.5776 7.65594 24.2947 10.5566 26.6513C13.7902 29.2508 16.5007 30.7813 17 31C17.4993 30.7813 20.0909 29.348 23.2294 26.8456C26.035 24.5862 29.8154 21.0392 32.0741 16.6904H32.0504Z" fill="#0B172B"/>
</g>
<defs>
<clipPath id="clip0_169_218">
<rect width="34" height="31" fill="white"/>
</clipPath>
</defs>
</svg>
