<svg width="27" height="28" viewBox="0 0 27 28" fill="none" xmlns="http://www.w3.org/2000/svg">
<g clip-path="url(#clip0_169_228)">
<path d="M15.1078 3.44729C14.7554 3.8054 14.7554 4.38734 15.1078 4.74545L15.9887 5.61835L3.06131 19.0476C2.6649 19.4729 2.6649 20.1443 3.06131 20.5472L4.55886 22.0468C4.55886 22.0468 4.51482 22.0916 4.49279 22.114L0.110249 27.2171C-0.0439111 27.3737 -0.0439111 27.6423 0.110249 27.799L0.19834 27.8885C0.3525 28.0452 0.616774 28.0452 0.770934 27.8885L5.70405 23.3226C5.70405 23.3226 5.7481 23.2778 5.77012 23.2554L7.11351 24.5984C7.53195 25.0012 8.19263 25.0012 8.58904 24.5984L21.5385 11.1915L22.4194 12.0644C22.7717 12.4225 23.3443 12.4225 23.6967 12.0644C24.0491 11.7063 24.0491 11.1243 23.6967 10.7662L21.12 8.1923L23.983 5.23786L25.2383 6.49126C25.6347 6.89413 26.2954 6.89413 26.6918 6.49126C27.0882 6.08838 27.0882 5.41692 26.6918 5.01404L22.023 0.291416C21.6266 -0.111462 20.9659 -0.111462 20.5695 0.291416C20.1731 0.694294 20.1731 1.36576 20.5695 1.76863L21.8248 3.02203L18.9618 5.97647L16.3851 3.40253C16.0328 3.04441 15.4602 3.04441 15.1078 3.40253V3.44729ZM4.27257 19.0924L7.0034 16.2498L8.41286 14.7726L15.7465 7.1851C16.0548 6.87175 16.5393 6.87175 16.8476 7.1851C17.1559 7.49845 17.1559 7.99086 16.8476 8.30421L16.231 8.95329L17.2 9.91572C17.3762 10.0948 17.3982 10.4081 17.2 10.5872C17.0238 10.7662 16.7155 10.7886 16.5393 10.5872L15.5703 9.62475L14.6894 10.5424L16.6494 12.4897C16.9357 12.7806 16.9357 13.2283 16.6494 13.5192C16.3631 13.8102 15.9226 13.8102 15.6363 13.5192L13.6763 11.572L12.7954 12.4897L13.7644 13.4521C13.9406 13.6311 13.9626 13.9445 13.7644 14.1235C13.5882 14.3026 13.2799 14.325 13.1037 14.1235L12.1347 13.1611L10.2408 15.1084L12.6412 17.5032C13.0597 17.9061 13.0597 18.6 12.6412 19.0028L8.47893 23.3002C8.08252 23.7255 7.39981 23.7255 7.0034 23.3002L4.22852 20.5472C3.81009 20.1443 3.81009 19.4505 4.22852 19.0476L4.27257 19.0924Z" fill="#0B172B"/>
</g>
<defs>
<clipPath id="clip0_169_228">
<rect width="27" height="28" fill="white"/>
</clipPath>
</defs>
</svg>
