<svg width="26" height="29" viewBox="0 0 26 29" fill="none" xmlns="http://www.w3.org/2000/svg">
<path d="M7.55691 21.679C7.76115 21.5573 7.98582 21.4965 8.2309 21.4965C8.74151 21.4965 9.19084 21.7601 9.39508 22.186C10.6409 24.721 13.2552 26.3636 16.0329 26.3636C16.4005 26.3636 16.7886 26.3434 17.1562 26.2825C20.0769 25.8161 22.4869 23.565 23.1609 20.6853C23.549 19.0629 23.3039 17.2783 22.5073 15.7573C21.7312 14.2769 20.4241 13.0804 18.8106 12.3706C18.5042 12.249 18.2796 11.9853 18.1774 11.6406C18.0549 11.2755 18.0957 10.8496 18.2796 10.5455C18.5246 10.1399 18.9331 9.91678 19.4029 9.91678C19.6071 9.91678 19.8318 9.95734 20.036 10.0587C23.6307 11.6203 25.9794 15.1692 25.9999 19.1035C26.0203 22.7336 23.9166 26.1811 20.6487 27.8846C19.2395 28.6147 17.6464 29 16.0329 29C14.9913 29 13.9496 28.8378 12.9693 28.5336C10.4163 27.7224 8.27175 25.8769 7.08716 23.4636C6.76037 22.7944 6.96461 22.0643 7.57733 21.6993L7.55691 21.679ZM0 21.6385C0 21.9832 0.163393 22.3077 0.428906 22.5105L2.57343 24.214C2.83895 24.4371 3.18616 24.5587 3.53337 24.5587C3.901 24.5587 4.22778 24.3965 4.45245 24.1329L8.3126 19.2455C10.8043 19.286 13.2961 19.3266 15.7878 19.3671C16.5231 19.3671 17.1154 18.779 17.1154 18.0692L17.2583 8.92308C17.2583 8.55804 17.1358 8.25385 16.9111 8.01049C16.666 7.76713 16.3188 7.62517 15.9512 7.62517C15.1955 7.62517 14.6236 8.17273 14.6236 8.9028C14.6236 9.87622 14.5828 10.8496 14.5828 11.8231C14.3786 11.7014 14.1539 11.6406 13.9088 11.6406H9.94653C9.21126 11.6406 8.63939 12.2084 8.63939 12.9587C8.63939 13.7091 9.19084 14.2769 9.94653 14.2769H13.9088C14.1539 14.2769 14.3581 14.2161 14.5419 14.1147C14.5419 14.9867 14.5215 15.8587 14.5011 16.7308L7.76115 16.6091C6.92376 16.6091 6.45401 17.2783 6.1068 17.765C6.04553 17.8664 5.98426 17.9476 5.92298 18.0287L3.26785 21.3951L2.22622 20.5636C1.65435 20.1175 0.878235 20.1378 0.408482 20.6042C0.142969 20.8678 0 21.2531 0.0204241 21.6385H0ZM19.3008 3.32587C19.3008 1.5007 17.8098 0 15.9512 0C14.0926 0 12.6017 1.48042 12.6017 3.32587C12.6017 5.17133 14.0926 6.65175 15.9512 6.65175C17.8098 6.65175 19.3008 5.17133 19.3008 3.32587Z" fill="#0B172B"/>
</svg>
