<svg width="21" height="29" viewBox="0 0 21 29" fill="none" xmlns="http://www.w3.org/2000/svg">
<g clip-path="url(#clip0_169_226)">
<path d="M2.47059 26.0185L3.56176 23.8283C3.56176 23.8283 1.21471 21.3948 1.95588 17.8661C2.61471 14.7025 5.14706 11.843 7.51471 9.91645L4.44706 3.85281L3.82941 4.15701C3.5 4.31925 3.08824 4.19757 2.92353 3.85281L2.63529 3.2647C2.47059 2.94023 2.59412 2.53463 2.94412 2.37239L4.03529 1.82484L6.48529 0.608057L7.59706 0.0807845C7.92647 -0.0814532 8.33824 0.0402251 8.50294 0.38498L8.79118 0.973092C8.95588 1.29757 8.83235 1.70316 8.48235 1.8654L7.86471 2.1696L12.6 11.478C12.7647 11.8227 12.6824 12.2283 12.4353 12.4717L12.8676 13.3032L13.3206 14.2157C13.5265 14.6011 13.3618 15.0675 12.9706 15.2703L11.9206 15.7773C11.5294 15.9598 11.0559 15.8178 10.85 15.4325L10.3971 14.5402L9.94412 13.6682C9.61471 13.6682 9.28529 13.506 9.12059 13.2018L8.99706 12.9381C8.23529 13.6682 5.78529 16.1626 5.35294 18.2311C4.92059 20.3199 6.01177 21.9626 8.13235 22.0234L14.5559 18.7584L17.0059 17.5416L18.1382 16.9738C18.4676 16.8116 18.8794 16.9332 19.0441 17.278L19.3324 17.8661C19.4971 18.1906 19.3735 18.5962 19.0235 18.7584L17.8912 19.3262L15.4412 20.543L10.0676 23.2808L10.85 24.7004L11.4059 24.4367L12.8265 23.7269L13.4853 23.4025C13.4853 23.4025 13.4853 23.4025 13.5059 23.4025C13.5059 23.1591 13.65 22.936 13.8765 22.8144L14.9676 22.2668L17.4176 21.05L18.55 20.4822C18.8794 20.3199 19.2912 20.4416 19.4559 20.7864L19.7441 21.3745C19.9088 21.699 19.7853 22.1046 19.4353 22.2668L18.3029 22.8346L15.8529 24.0514L14.7618 24.599C14.4941 24.7409 14.1647 24.6801 13.9588 24.457L13.3206 24.7815L11.9 25.4913L11.3853 25.7549L11.5706 26.0794H20.9176V29.0605H0V26.0794H2.47059V26.0185Z" fill="black"/>
</g>
<defs>
<clipPath id="clip0_169_226">
<rect width="21" height="29" fill="white"/>
</clipPath>
</defs>
</svg>
