<svg width="28" height="28" viewBox="0 0 28 28" fill="none" xmlns="http://www.w3.org/2000/svg">
<g clip-path="url(#clip0_169_223)">
<path d="M6.62029 27.453L27.5149 6.60556C28.1263 5.99549 28.1474 5.04884 27.5992 4.48084L23.5088 0.399699C23.2558 0.147258 22.8974 0 22.5179 0C22.0962 0 21.6956 0.168295 21.3793 0.483847L0.484745 21.3313C-0.126701 21.9414 -0.147785 22.8881 0.400407 23.456L4.49077 27.5372C4.74378 27.7896 5.10221 27.9369 5.48173 27.9369C5.90342 27.9369 6.30402 27.7686 6.62029 27.453ZM2.90944 22.7408C2.90944 22.9722 2.82511 23.2036 2.65643 23.3719C2.48776 23.5402 2.27691 23.6243 2.0239 23.6243C1.77089 23.6243 1.56005 23.5402 1.39137 23.3719C1.05402 23.0353 1.05402 22.4673 1.39137 22.1307C1.56005 21.9624 1.77089 21.8783 2.0239 21.8783C2.27691 21.8783 2.48776 21.9624 2.65643 22.1307C2.82511 22.299 2.90944 22.5094 2.90944 22.7618V22.7408ZM4.38535 25.0759C4.55402 24.9076 4.76487 24.8234 5.01788 24.8234C5.27089 24.8234 5.48173 24.9076 5.65041 25.0759C5.81908 25.2442 5.90342 25.4545 5.90342 25.707C5.90342 25.9594 5.81908 26.1698 5.65041 26.3381C5.48173 26.5064 5.27089 26.5905 5.01788 26.5905C4.76487 26.5905 4.55402 26.5064 4.38535 26.3381C4.048 26.0015 4.048 25.4335 4.38535 25.0969V25.0759ZM4.55402 21.8993C4.7227 21.731 4.95462 21.6469 5.18655 21.6469C5.41848 21.6469 5.65041 21.731 5.81908 21.8993C5.98776 22.0676 6.07209 22.299 6.07209 22.5304C6.07209 22.7618 5.98776 22.9932 5.81908 23.1615C5.65041 23.3298 5.41848 23.414 5.18655 23.414C4.95462 23.414 4.7227 23.3298 4.55402 23.1615C4.38535 22.9932 4.30101 22.7618 4.30101 22.5304C4.30101 22.299 4.38535 22.0676 4.55402 21.8993ZM5.65041 18.2389C5.88234 18.2389 6.11426 18.3231 6.28294 18.4914C6.62029 18.8279 6.62029 19.3959 6.28294 19.7536C6.11426 19.9219 5.88234 20.006 5.65041 20.006C5.41848 20.006 5.18655 19.9219 5.01788 19.7536C4.68053 19.417 4.68053 18.849 5.01788 18.4914C5.18655 18.3231 5.41848 18.2389 5.65041 18.2389ZM19.798 6.26897C19.6293 6.43726 19.3974 6.52141 19.1655 6.52141C18.9335 6.52141 18.7016 6.43726 18.5329 6.26897C18.1956 5.93238 18.1956 5.36439 18.5329 5.00676C18.7016 4.83847 18.9335 4.75432 19.1655 4.75432C19.3974 4.75432 19.6293 4.83847 19.798 5.00676C20.1353 5.34335 20.1353 5.91134 19.798 6.26897ZM25.1323 4.37566C25.301 4.20736 25.5119 4.12322 25.7649 4.12322C26.0179 4.12322 26.2287 4.20736 26.3974 4.37566C26.5661 4.54395 26.6504 4.75432 26.6504 5.00676C26.6504 5.2592 26.5661 5.46957 26.3974 5.63787C26.2287 5.80616 26.0179 5.89031 25.7649 5.89031C25.5119 5.89031 25.301 5.80616 25.1323 5.63787C24.795 5.30128 24.795 4.73328 25.1323 4.39669V4.37566ZM23.4034 2.67168C23.2347 2.83997 23.0239 2.92412 22.7709 2.92412C22.5179 2.92412 22.307 2.83997 22.1384 2.67168C21.801 2.33509 21.801 1.76709 22.1384 1.4305C22.307 1.26221 22.5179 1.17806 22.7709 1.17806C23.0239 1.17806 23.2347 1.26221 23.4034 1.4305C23.7408 1.76709 23.7408 2.33509 23.4034 2.67168ZM23.2137 5.78512C23.045 5.95342 22.8131 6.03757 22.5811 6.03757C22.3492 6.03757 22.1173 5.95342 21.9486 5.78512C21.7799 5.61683 21.6956 5.38542 21.6956 5.15402C21.6956 4.92261 21.7799 4.69121 21.9486 4.52291C22.1173 4.35462 22.3492 4.27047 22.5811 4.27047C22.8131 4.27047 23.045 4.35462 23.2137 4.52291C23.551 4.8595 23.551 5.4275 23.2137 5.78512ZM22.1384 9.4876C21.9064 9.4876 21.6745 9.40345 21.5058 9.23516C21.1685 8.89857 21.1685 8.33058 21.5058 7.97295C21.6745 7.80466 21.9064 7.72051 22.1384 7.72051C22.3703 7.72051 22.6022 7.80466 22.7709 7.97295C23.1082 8.30954 23.1082 8.87753 22.7709 9.23516C22.6022 9.40345 22.3703 9.4876 22.1384 9.4876ZM16.1926 6.24793C16.298 6.14275 16.4667 6.07964 16.6143 6.07964C16.7619 6.07964 16.9305 6.14275 17.0359 6.24793L21.7799 10.9812C22.0119 11.2126 22.0119 11.5913 21.7799 11.8437C21.6745 11.9489 21.5058 12.012 21.3582 12.012C21.2106 12.012 21.042 11.9489 20.9366 11.8437L16.1926 7.11044C15.9606 6.87904 15.9606 6.50038 16.1926 6.24793ZM11.0269 21.7731L6.28294 17.0398C6.17752 16.9346 6.11426 16.7663 6.11426 16.6191C6.11426 16.4718 6.17752 16.3035 6.28294 16.1983C6.38836 16.0932 6.55703 16.0301 6.70462 16.0301C6.85221 16.0301 7.02089 16.0932 7.12631 16.1983L11.8703 20.9316C12.1022 21.163 12.1022 21.5417 11.8703 21.7941C11.7649 21.8993 11.5962 21.9624 11.4486 21.9624C11.301 21.9624 11.1323 21.8993 11.0269 21.7941V21.7731ZM7.71667 22.0887C7.71667 21.8572 7.80101 21.6258 7.96968 21.4576C8.13836 21.2893 8.37029 21.2051 8.60221 21.2051C8.83414 21.2051 9.06607 21.2893 9.23475 21.4576C9.40342 21.6258 9.48776 21.8572 9.48776 22.0887C9.48776 22.3201 9.40342 22.5515 9.23475 22.7198C9.06607 22.8881 8.83414 22.9722 8.60221 22.9722C8.37029 22.9722 8.13836 22.8881 7.96968 22.7198C7.80101 22.5515 7.71667 22.3201 7.71667 22.0887ZM7.25282 13.4215L13.3884 7.29977L6.62029 0.546957C6.32511 0.252442 5.90342 0.0631104 5.48173 0.0631104C5.10221 0.0631104 4.74378 0.210368 4.49077 0.46281L0.400407 4.54395C-0.16887 5.11195 -0.126701 6.0586 0.484745 6.66867L7.25282 13.4215ZM2.55101 5.84823C2.38234 6.01653 2.17149 6.10068 1.91848 6.10068C1.66547 6.10068 1.45462 6.01653 1.28595 5.84823C0.9486 5.51164 0.9486 4.94365 1.28595 4.60706C1.45462 4.43877 1.66547 4.35462 1.91848 4.35462C2.17149 4.35462 2.38234 4.43877 2.55101 4.60706C2.88836 4.94365 2.88836 5.51164 2.55101 5.84823ZM5.77691 2.25094C5.77691 2.48234 5.69258 2.71375 5.5239 2.88204C5.35523 3.05034 5.14438 3.13449 4.89137 3.13449C4.63836 3.13449 4.42752 3.05034 4.25884 2.88204C4.09017 2.71375 4.00583 2.50338 4.00583 2.25094C4.00583 1.9985 4.09017 1.78813 4.25884 1.61983C4.42752 1.45154 4.63836 1.36739 4.89137 1.36739C5.14438 1.36739 5.35523 1.45154 5.5239 1.61983C5.69258 1.78813 5.77691 1.9985 5.77691 2.25094ZM6.07209 5.46957C6.07209 5.70098 5.98776 5.93238 5.81908 6.10068C5.65041 6.26897 5.41848 6.35312 5.18655 6.35312C4.95462 6.35312 4.7227 6.26897 4.55402 6.10068C4.38535 5.93238 4.30101 5.70098 4.30101 5.46957C4.30101 5.23817 4.38535 5.00676 4.55402 4.83847C4.7227 4.67017 4.95462 4.58603 5.18655 4.58603C5.41848 4.58603 5.65041 4.67017 5.81908 4.83847C5.98776 5.00676 6.07209 5.23817 6.07209 5.46957ZM6.28294 9.50864C6.11426 9.67693 5.88234 9.76108 5.65041 9.76108C5.41848 9.76108 5.18655 9.67693 5.01788 9.50864C4.68053 9.17205 4.68053 8.60406 5.01788 8.24643C5.18655 8.07814 5.41848 7.99399 5.65041 7.99399C5.88234 7.99399 6.11426 8.07814 6.28294 8.24643C6.62029 8.58302 6.62029 9.15101 6.28294 9.50864ZM9.50884 5.93238C9.50884 6.16379 9.4245 6.39519 9.25583 6.56349C9.08715 6.73178 8.85523 6.81593 8.6233 6.81593C8.39137 6.81593 8.15944 6.73178 7.99077 6.56349C7.82209 6.39519 7.73776 6.16379 7.73776 5.93238C7.73776 5.70098 7.82209 5.46957 7.99077 5.30128C8.15944 5.13298 8.39137 5.04884 8.6233 5.04884C8.85523 5.04884 9.08715 5.13298 9.25583 5.30128C9.4245 5.46957 9.50884 5.70098 9.50884 5.93238ZM11.8703 7.08941L7.12631 11.8227C7.02089 11.9279 6.85221 11.991 6.70462 11.991C6.55703 11.991 6.38836 11.9279 6.28294 11.8227C6.05101 11.5913 6.05101 11.2126 6.28294 10.9602L11.0269 6.2269C11.1323 6.12171 11.301 6.0586 11.4486 6.0586C11.5962 6.0586 11.7649 6.12171 11.8703 6.2269C12.1022 6.4583 12.1022 6.83696 11.8703 7.08941ZM20.6835 14.5785L14.548 20.7002L21.4004 27.5162C21.6956 27.8107 22.1173 28 22.539 28C22.9185 28 23.2769 27.8527 23.5299 27.6003L27.6203 23.5192C28.1896 22.9512 28.1474 22.0045 27.536 21.3944L20.6835 14.5785ZM25.1113 22.4463C25.2799 22.278 25.4908 22.1938 25.7438 22.1938C25.9968 22.1938 26.2076 22.278 26.3763 22.4463C26.7137 22.7829 26.7137 23.3509 26.3763 23.6875C26.2076 23.8557 25.9968 23.9399 25.7438 23.9399C25.4908 23.9399 25.2799 23.8557 25.1113 23.6875C24.7739 23.3509 24.7739 22.7829 25.1113 22.4463ZM22.1594 25.4125C22.3281 25.2442 22.539 25.16 22.792 25.16C23.045 25.16 23.2558 25.2442 23.4245 25.4125C23.5932 25.5808 23.6775 25.7911 23.6775 26.0436C23.6775 26.296 23.5932 26.5064 23.4245 26.6747C23.2558 26.843 23.045 26.9271 22.792 26.9271C22.539 26.9271 22.3281 26.843 22.1594 26.6747C21.8221 26.3381 21.8221 25.7701 22.1594 25.4335V25.4125ZM21.6956 22.846C21.6956 22.6146 21.7799 22.3832 21.9486 22.2149C22.1173 22.0466 22.3492 21.9624 22.5811 21.9624C22.8131 21.9624 23.045 22.0466 23.2137 22.2149C23.551 22.5515 23.551 23.1195 23.2137 23.4771C23.045 23.6454 22.8131 23.7295 22.5811 23.7295C22.3492 23.7295 22.1173 23.6454 21.9486 23.4771C21.7799 23.3088 21.6956 23.0774 21.6956 22.846ZM21.5058 18.7859C21.6745 18.6176 21.9064 18.5334 22.1384 18.5334C22.3703 18.5334 22.6022 18.6176 22.7709 18.7859C23.1082 19.1225 23.1082 19.6905 22.7709 20.0481C22.6022 20.2164 22.3703 20.3005 22.1384 20.3005C21.9064 20.3005 21.6745 20.2164 21.5058 20.0481C21.1685 19.7115 21.1685 19.1435 21.5058 18.7859ZM18.5329 21.7521C18.7016 21.5838 18.9335 21.4996 19.1655 21.4996C19.3974 21.4996 19.6293 21.5838 19.798 21.7521C20.1353 22.0887 20.1353 22.6566 19.798 23.0143C19.6293 23.1826 19.3974 23.2667 19.1655 23.2667C18.9335 23.2667 18.7016 23.1826 18.5329 23.0143C18.1956 22.6777 18.1956 22.1097 18.5329 21.7521ZM16.1926 20.8896L20.9366 16.1563C21.042 16.0511 21.2106 15.988 21.3582 15.988C21.5058 15.988 21.6745 16.0511 21.7799 16.1563C22.0119 16.3877 22.0119 16.7663 21.7799 17.0188L17.0359 21.7521C16.9305 21.8573 16.7619 21.9204 16.6143 21.9204C16.4667 21.9204 16.298 21.8573 16.1926 21.7521C15.9606 21.5207 15.9606 21.142 16.1926 20.8896Z" fill="#0B172B"/>
</g>
<defs>
<clipPath id="clip0_169_223">
<rect width="28" height="28" fill="white"/>
</clipPath>
</defs>
</svg>
