<svg width="9" height="30" viewBox="0 0 9 30" fill="none" xmlns="http://www.w3.org/2000/svg">
<g clip-path="url(#clip0_169_210)">
<path d="M0 9.06745L0 25.7115C0 27.8559 1.83404 29.6122 4.07328 29.6122C6.31252 29.6122 8.14657 27.8559 8.14657 25.7115L8.14657 9.06745C8.14657 8.78154 7.89065 8.53648 7.59209 8.53648H0.554478C0.255913 8.53648 0 8.78154 0 9.06745ZM1.10896 9.59843H7.05894L7.05894 25.7115C7.05894 27.2841 5.71539 28.5502 4.09461 28.5502C2.47383 28.5502 1.13028 27.2636 1.13028 25.7115L1.13028 9.59843H1.10896ZM6.39783 25.7115L6.39783 16.4603H1.77007L1.77007 25.7115C1.77007 26.9369 2.81504 27.9376 4.09461 27.9376C5.37418 27.9376 6.41915 26.9369 6.41915 25.7115H6.39783ZM4.15859 19.4215C4.15859 19.6257 3.98798 19.7687 3.79604 19.7687C3.60411 19.7687 3.4335 19.6053 3.4335 19.4215C3.4335 19.2377 3.60411 19.0743 3.79604 19.0743C3.98798 19.0743 4.15859 19.2377 4.15859 19.4215ZM5.60876 18.38C5.60876 18.768 5.28887 19.0743 4.88367 19.0743C4.47848 19.0743 4.15859 18.768 4.15859 18.38C4.15859 17.992 4.47848 17.6856 4.88367 17.6856C5.28887 17.6856 5.60876 17.992 5.60876 18.38ZM4.67041 14.4589C4.15859 14.4589 3.73207 14.0505 3.73207 13.5603C3.73207 13.0702 4.15859 12.6618 4.67041 12.6618C5.18224 12.6618 5.60876 13.0702 5.60876 13.5603C5.60876 14.0505 5.18224 14.4589 4.67041 14.4589ZM2.92167 12.1716C2.66576 12.1716 2.4525 11.9674 2.4525 11.7223C2.4525 11.4773 2.66576 11.2731 2.92167 11.2731C3.17759 11.2731 3.39085 11.4773 3.39085 11.7223C3.39085 11.9674 3.17759 12.1716 2.92167 12.1716ZM8.46646 4.57457C8.46646 3.47177 7.52811 2.59362 6.39783 2.59362C5.26754 2.59362 4.3292 3.4922 4.3292 4.57457C4.3292 5.65695 5.26754 6.55552 6.39783 6.55552C7.52811 6.55552 8.46646 5.65695 8.46646 4.57457ZM7.74137 4.57457C7.74137 5.28935 7.14424 5.88159 6.3765 5.88159C5.60876 5.88159 5.01163 5.30977 5.01163 4.57457C5.01163 3.83937 5.60876 3.26755 6.3765 3.26755C7.14424 3.26755 7.74137 3.83937 7.74137 4.57457ZM1.77007 5.57526C1.13028 5.57526 0.618457 6.06539 0.618457 6.67806C0.618457 7.29072 1.13028 7.78086 1.77007 7.78086C2.40985 7.78086 2.92167 7.29072 2.92167 6.67806C2.92167 6.06539 2.40985 5.57526 1.77007 5.57526ZM1.77007 6.14708C2.06863 6.14708 2.32454 6.39215 2.32454 6.67806C2.32454 6.96397 2.06863 7.20903 1.77007 7.20903C1.4715 7.20903 1.21559 6.96397 1.21559 6.67806C1.21559 6.39215 1.4715 6.14708 1.77007 6.14708ZM4.26522 1.26618C4.26522 0.571821 3.66809 0 2.943 0C2.21791 0 1.62078 0.571821 1.62078 1.26618C1.62078 1.96053 2.21791 2.53235 2.943 2.53235C3.66809 2.53235 4.26522 1.96053 4.26522 1.26618ZM3.66809 1.26618C3.66809 1.6542 3.3482 1.96053 2.943 1.96053C2.5378 1.96053 2.21791 1.6542 2.21791 1.26618C2.21791 0.878154 2.5378 0.571821 2.943 0.571821C3.3482 0.571821 3.66809 0.878154 3.66809 1.26618Z" fill="#0B172B"/>
</g>
<defs>
<clipPath id="clip0_169_210">
<rect width="8.46646" height="29.6326" fill="white"/>
</clipPath>
</defs>
</svg>
