<svg width="33" height="28" viewBox="0 0 33 28" fill="none" xmlns="http://www.w3.org/2000/svg">
<g clip-path="url(#clip0_169_221)">
<path d="M0 9.19095V24.7307C0 26.5311 1.48692 27.9997 3.30959 27.9997H29.6664C31.4891 27.9997 32.976 26.5311 32.976 24.7307V9.19095C32.976 7.39061 31.4891 5.92192 29.6664 5.92192H24.2943V4.09789C24.2943 1.84746 22.4477 0.0234375 20.1693 0.0234375H12.8067C10.5283 0.0234375 8.68169 1.84746 8.68169 4.09789V5.92192H3.30959C1.48692 5.92192 0 7.39061 0 9.19095ZM21.7522 4.0742C21.7522 4.92699 21.0567 5.63765 20.1693 5.63765H12.8067C11.9433 5.63765 11.2238 4.95068 11.2238 4.0742C11.2238 3.19772 11.9193 2.51075 12.8067 2.51075H20.1693C21.0327 2.51075 21.7522 3.19772 21.7522 4.0742ZM9.52108 14.7341H14.2936V10.0201H18.7304V14.7341H23.4789V19.1165H18.7304V23.8305H14.2936V19.1165H9.52108V14.7341Z" fill="#0B172B"/>
</g>
<defs>
<clipPath id="clip0_169_221">
<rect width="33" height="28" fill="white"/>
</clipPath>
</defs>
</svg>
