<svg width="48" height="27" viewBox="0 0 48 27" fill="none" xmlns="http://www.w3.org/2000/svg">
<g clip-path="url(#clip0_169_213)">
<path d="M23.9971 26.9759C21.7356 27.1218 19.6826 26.3835 17.6869 25.4427C15.5663 24.443 13.6715 23.1121 12.0147 21.449C11.5728 21.0056 11.1646 20.5329 10.8078 20.0164C10.6603 19.8025 10.4651 19.6722 10.2143 19.5576C8.99776 19.0013 7.87197 18.2856 6.79874 17.4878C5.7949 16.7411 4.81539 15.9628 3.94641 15.06C2.21687 13.263 0.900941 11.2191 0.316418 8.76236C-0.0515378 7.21511 -0.1825 5.66545 0.384902 4.12753C0.782294 3.0502 1.46894 2.24153 2.61817 2.00085C3.55322 1.805 4.49249 1.90458 5.38699 2.31132C6.33767 2.74364 7.15348 3.3688 7.95727 4.01802C8.29219 4.28848 8.64182 4.54119 8.97163 4.81737C9.14254 4.96057 9.30714 4.9726 9.50899 4.90732C11.2019 4.36038 12.8969 3.81856 14.5561 3.17415C16.6167 2.3736 18.6766 1.57124 20.7303 0.752942C21.5329 0.433143 22.3568 0.178928 23.2044 0.0582891C24.0791 -0.0665619 24.9565 0.0218867 25.8273 0.233381C27.069 0.534528 28.1957 1.12268 29.3786 1.56944C31.9885 2.55471 34.5597 3.64437 37.2231 4.48493C37.7142 4.63987 38.2119 4.77585 38.6655 5.02405C38.8869 5.14529 39.0277 5.12273 39.2155 4.93831C40.0319 4.13685 40.9297 3.43348 41.8683 2.77793C42.8911 2.06373 44.019 1.81252 45.2376 1.97137C46.0507 2.07757 46.6698 2.54899 47.1354 3.19491C47.6349 3.88775 47.8878 4.6865 47.9605 5.53789C48.2005 8.34388 47.3282 10.8349 45.7666 13.1138C44.3572 15.1704 42.4862 16.7552 40.4554 18.162C39.6945 18.6891 38.9061 19.177 38.0431 19.5245C37.7725 19.6334 37.57 19.8052 37.3946 20.0332C35.2773 22.7869 32.5322 24.6846 29.3293 25.9662C28.1278 26.447 26.8888 26.7842 25.6131 26.9644C25.0845 27.039 24.5363 26.9768 23.9968 26.9768L23.9971 26.9759ZM3.60429 3.15128C2.22979 3.10315 1.75099 3.75508 1.45002 4.72561C1.14935 5.69433 1.18449 6.70006 1.3491 7.66818C1.76781 10.1294 2.91794 12.2431 4.63426 14.0482C5.33323 14.7832 6.06974 15.482 6.85731 16.1204C7.70887 16.8106 8.59556 17.4559 9.53122 18.0305C9.57087 18.0549 9.61533 18.1484 9.6775 18.0648C9.69583 18.0401 9.68802 17.9827 9.673 17.9484C9.20502 16.8807 8.98515 15.748 8.76858 14.6108C8.4658 13.0205 8.29249 11.4176 8.33003 9.80238C8.35587 8.68504 8.4616 7.5674 8.58625 6.45607C8.61869 6.16606 8.5451 6.02406 8.34866 5.86762C7.87707 5.49216 7.42261 5.09445 6.94442 4.72772C6.27789 4.21628 5.59575 3.7265 4.80998 3.40369C4.40838 3.23883 4.00498 3.09743 3.60459 3.15128H3.60429ZM46.777 6.37605C46.8233 5.58362 46.6515 4.83722 46.3379 4.1185C46.1468 3.68047 45.8429 3.37902 45.3641 3.25327C44.5822 3.04809 43.8358 3.11939 43.1104 3.47379C41.9362 4.0478 41.0003 4.94884 39.9712 5.72412C39.5218 6.06257 39.4957 6.45457 39.5609 6.91366C39.6855 7.78762 39.766 8.66458 39.7937 9.54666C39.8432 11.1231 39.6795 12.6821 39.4191 14.2347C39.2167 15.4417 38.9244 16.6232 38.5183 17.7772C38.4943 17.8458 38.3807 17.9207 38.4678 17.9926C38.5474 18.0585 38.6186 17.9589 38.6868 17.9183C39.7243 17.2986 40.69 16.5807 41.6073 15.7943C42.9554 14.6391 44.1962 13.3888 45.1172 11.8547C46.13 10.1676 46.747 8.35952 46.777 6.37605ZM24.0743 6.99158C24.715 7.0349 25.3542 7.02166 25.9997 7.11824C27.4694 7.33845 28.8899 7.72294 30.2986 8.17601C31.5019 8.5629 32.6683 9.05719 33.8884 9.39594C34.0578 9.44287 34.217 9.50033 34.3891 9.46393C34.6459 9.40978 34.8291 9.21423 34.8429 8.98228C34.8589 8.71573 34.7531 8.52529 34.4816 8.44677C34.3584 8.41097 34.2389 8.36313 34.1163 8.32433C33.6261 8.16999 33.1353 8.01867 32.6454 7.86313C30.3584 7.13779 28.0888 6.35619 25.6831 6.08242C24.3888 5.93531 23.1038 5.95998 21.8278 6.17478C20.6459 6.37394 19.4915 6.70307 18.3378 7.03159C16.8357 7.45939 15.3852 8.06139 13.8455 8.36193C13.7842 8.37397 13.7289 8.41669 13.6703 8.44436C13.3835 8.58065 13.2174 8.8144 13.257 9.0274C13.3108 9.31742 13.5844 9.50123 13.9464 9.47205C14.0719 9.46212 14.1945 9.41309 14.3179 9.37999C16.0355 8.9188 17.6887 8.25754 19.39 7.7455C20.9183 7.28551 22.4631 6.93833 24.074 6.99128L24.0743 6.99158ZM24.6045 14.8987C25.2386 14.8987 26.1087 14.9697 26.9624 14.8822C28.251 14.7501 29.5441 14.8286 30.8336 14.6968C31.6209 14.6165 32.4186 14.5521 33.2152 14.5254C33.6409 14.5112 34.0698 14.4423 34.4864 14.3503C34.8493 14.2702 35.0499 13.9261 34.9682 13.6297C34.8883 13.3409 34.6291 13.2308 34.2353 13.2979C33.7712 13.377 33.3065 13.4829 32.8389 13.5034C32.0861 13.5365 31.3382 13.6285 30.5882 13.6833C29.2137 13.7838 27.8374 13.8503 26.4617 13.8951C24.9535 13.9444 23.4423 13.9005 21.9324 13.8957C21.6951 13.8948 21.4524 13.9155 21.2217 13.8737C20.1566 13.6812 19.0758 13.7985 18.002 13.6725C16.6596 13.5148 15.3002 13.501 13.9611 13.2805C13.8554 13.263 13.7457 13.2591 13.6388 13.2648C13.3826 13.2787 13.166 13.4528 13.1237 13.6676C13.0852 13.862 13.2336 14.1704 13.44 14.254C13.6172 14.3256 13.8112 14.3864 13.9999 14.3933C14.4309 14.4092 14.8547 14.4742 15.2815 14.5154C16.5221 14.6352 17.7671 14.757 19.0116 14.7708C20.8012 14.7907 22.5842 15.0037 24.6042 14.8984L24.6045 14.8987ZM24.1047 22.0492C24.8601 22.0991 25.6843 21.9565 26.5139 21.8158C28.9187 21.4084 31.1177 20.4749 33.2176 19.2715C33.3876 19.174 33.5535 19.0763 33.6718 18.9159C33.7802 18.7691 33.8472 18.6154 33.7346 18.44C33.6225 18.2652 33.479 18.1623 33.2537 18.1812C33.0482 18.1987 32.895 18.3166 32.7247 18.4048C31.2935 19.1445 29.8249 19.795 28.299 20.3202C26.9891 20.7709 25.6474 21.0814 24.269 21.1106C23.1768 21.1334 22.0868 20.9854 21.0183 20.7023C19.0527 20.1813 17.2279 19.3287 15.4338 18.3969C15.283 18.3187 15.1545 18.1891 14.9695 18.1882C14.7778 18.1873 14.5739 18.1487 14.4447 18.3503C14.3273 18.5338 14.345 18.8341 14.5147 19.0098C14.6321 19.1316 14.7766 19.2348 14.925 19.3175C16.0709 19.9562 17.2439 20.5381 18.4856 20.9716C20.2773 21.5973 22.0922 22.1013 24.105 22.0492H24.1047Z" fill="#0B172B"/>
</g>
<defs>
<clipPath id="clip0_169_213">
<rect width="48" height="27" fill="white"/>
</clipPath>
</defs>
</svg>
