<svg width="19" height="21" viewBox="0 0 19 21" fill="none" xmlns="http://www.w3.org/2000/svg">
<g clip-path="url(#clip0_169_2469)">
<path d="M18.8431 4.2106C18.7986 3.89404 18.5278 3.65257 18.1991 3.63635C16.5761 3.55629 15.0061 3.18506 13.5335 2.53311C12.2181 1.95075 11.0214 1.16066 9.97595 0.185094C9.86728 0.0835866 9.73002 0.0210602 9.58387 0.00483992L9.57227 0.00353183C9.5569 0.00196213 9.5418 0.00117728 9.52616 0.000392426C9.51214 -0.000130809 9.49218 -0.000130809 9.47412 0.000392426C9.45848 0.00091566 9.44284 0.00196213 9.42612 0.00353183L9.42019 0.00431668C9.26945 0.0210602 9.13246 0.0835866 9.02352 0.185094C7.97833 1.16093 6.78133 1.95075 5.46621 2.53311C3.99335 3.18532 2.42368 3.55655 0.800345 3.63635C0.471634 3.65257 0.200629 3.89404 0.156405 4.2106C-0.139408 6.32211 -0.419042 11.7415 3.36721 16.4519C4.88187 18.3363 6.90132 19.8872 9.2077 20.9368C9.29668 20.9774 9.39133 20.9986 9.48868 20.9996H9.49758H9.50162C9.50486 20.9996 9.50809 20.9996 9.51133 20.9996C9.60868 20.9983 9.70306 20.9771 9.79204 20.9366C12.0984 19.887 14.1179 18.3361 15.6325 16.4517C19.4185 11.7412 19.1391 6.32158 18.8433 4.21033L18.8431 4.2106ZM14.552 15.6346C13.2153 17.2977 11.516 18.6301 9.49946 19.5966C7.48297 18.6301 5.7836 17.2975 4.44691 15.6346C1.31107 11.7334 1.20375 7.32044 1.44887 4.92376C3.0393 4.78275 4.5812 4.38562 6.03438 3.7423C7.29314 3.18506 8.45778 2.45279 9.49946 1.56434C10.5411 2.45279 11.7058 3.18506 12.9646 3.7423C14.4177 4.38562 15.9594 4.78301 17.5501 4.92376C17.7952 7.32044 17.6879 11.7331 14.552 15.6346Z" fill="#00C1FF"/>
<path d="M5.56862 10.0366C5.44108 9.90919 5.27011 9.83777 5.08729 9.83515C4.905 9.83201 4.73134 9.89925 4.60002 10.023C4.32901 10.2783 4.32281 10.6998 4.58573 10.9627L7.68866 14.0624C7.81567 14.1892 7.99284 14.2628 8.17512 14.2638H8.18025C8.36334 14.2638 8.53512 14.1947 8.66455 14.0692L14.9009 8.01874C15.1679 7.75974 15.1679 7.33802 14.9009 7.07902C14.6339 6.82002 14.1993 6.82002 13.9323 7.07902L8.18753 12.6528L5.56889 10.0369L5.56862 10.0366Z" fill="#00C1FF"/>
</g>
<defs>
<clipPath id="clip0_169_2469">
<rect width="19" height="21" fill="white"/>
</clipPath>
</defs>
</svg>
