<svg width="22" height="21" viewBox="0 0 22 21" fill="none" xmlns="http://www.w3.org/2000/svg">
<path d="M15.1333 13.4339C14.8557 13.2065 14.4075 13.2934 14.0998 13.5677C11.9256 15.5178 8.60419 15.5178 6.43004 13.5677C6.12231 13.2934 5.67411 13.2098 5.39649 13.4339C5.11887 13.658 5.17239 14.1832 5.56708 14.5344C8.23292 16.9261 12.3036 16.9261 14.9661 14.5344C15.3574 14.1832 15.4143 13.658 15.1333 13.4339Z" fill="#00C1FF"/>
<path d="M7.43641 7.6333C7.43641 6.95427 6.88452 6.40234 6.20551 6.40234C5.52651 6.40234 4.97461 6.95427 4.97461 7.6333C4.97461 8.31233 5.52651 8.86426 6.20551 8.86426C6.88452 8.86426 7.43641 8.31233 7.43641 7.6333Z" fill="#00C1FF"/>
<path d="M14.3286 6.40234C13.6496 6.40234 13.0977 6.95427 13.0977 7.6333C13.0977 8.31233 13.6496 8.86426 14.3286 8.86426C15.0076 8.86426 15.5595 8.31233 15.5595 7.6333C15.5595 6.95427 15.0076 6.40234 14.3286 6.40234Z" fill="#00C1FF"/>
<path d="M20.3362 7.52302C20.276 7.52302 20.2191 7.52636 20.1622 7.53305C19.9649 6.82392 19.6906 6.12815 19.3294 5.44912C16.6669 0.44166 10.4521 -1.4583 5.44823 1.20432C0.444331 3.86693 -1.45889 10.0819 1.20361 15.0861C2.58838 17.6918 4.93981 19.4546 7.57889 20.1704C7.79965 20.6588 8.28801 21 8.85998 21H11.673C12.449 21 13.0778 20.3711 13.0778 19.5918C13.0778 18.8124 12.449 18.1869 11.673 18.1869H8.85998C8.40842 18.1869 8.01039 18.3976 7.75283 18.7288C5.5653 18.0798 3.62864 16.588 2.47132 14.4104C0.183445 10.1054 1.81572 4.76005 6.12054 2.47207C10.4254 0.184097 15.7704 1.81646 18.0583 6.12147C18.4965 6.94433 18.7875 7.80734 18.9481 8.67704C18.9347 8.75732 18.9246 8.83759 18.9246 8.92456V12.8616C18.9246 13.6377 19.5535 14.2699 20.3295 14.2699C21.1055 14.2699 21.7343 13.641 21.7343 12.8616V8.92456C21.7343 8.14852 21.1055 7.51967 20.3295 7.51967L20.3362 7.52302Z" fill="#00C1FF"/>
</svg>
