<svg width="21" height="21" viewBox="0 0 21 21" fill="none" xmlns="http://www.w3.org/2000/svg">
<g clip-path="url(#clip0_169_2460)">
<path d="M19.9998 10.7956C19.8923 10.6132 19.8923 10.3868 19.9998 10.2044L20.7023 9.01498C21.0179 8.48105 21.0854 7.83973 20.8883 7.25515C20.6912 6.67056 20.2438 6.19033 19.662 5.93653L18.3661 5.3712C18.1674 5.28457 18.0288 5.10119 18.0045 4.89299L17.8459 3.53386C17.7748 2.92344 17.437 2.3662 16.9205 2.00552C16.4035 1.64434 15.7479 1.50807 15.1224 1.63167L13.7284 1.90674C13.515 1.94879 13.2905 1.87888 13.1435 1.72387L12.1838 0.713762C11.7527 0.260379 11.1393 0 10.5 0C9.86077 0 9.24734 0.259872 8.81625 0.713762L7.85658 1.72387C7.70955 1.87888 7.48557 1.94879 7.27161 1.90674L5.87768 1.63167C5.25161 1.50807 4.59601 1.64434 4.07903 2.00552C3.56204 2.36671 3.22475 2.92344 3.15361 3.53386L2.99498 4.89299C2.97074 5.10119 2.83214 5.28457 2.63346 5.3712L1.33756 5.93653C0.755747 6.19033 0.308849 6.67107 0.111223 7.25515C-0.0864032 7.83922 -0.0184199 8.48055 0.297255 9.01498L0.999749 10.2044C1.10726 10.3868 1.10726 10.6132 0.999749 10.7956L0.297255 11.985C-0.0184199 12.5189 -0.0858762 13.1603 0.111223 13.7444C0.308849 14.3284 0.755747 14.8092 1.33756 15.063L2.63346 15.6283C2.83214 15.7149 2.97074 15.8983 2.99498 16.1065L3.15361 17.4656C3.22475 18.0761 3.56204 18.6333 4.07903 18.994C4.59601 19.3552 5.25161 19.4914 5.87768 19.3678L7.27161 19.0928C7.48504 19.0507 7.70955 19.1206 7.85658 19.2756L8.81625 20.2857C9.24734 20.7391 9.86077 20.9995 10.5 20.9995C11.1393 20.9995 11.7527 20.7396 12.1838 20.2857L13.1435 19.2756C13.2905 19.1211 13.515 19.0507 13.7284 19.0928L15.1224 19.3678C15.7484 19.4914 16.404 19.3552 16.9205 18.994C17.437 18.6328 17.7748 18.0761 17.8459 17.4656L18.0045 16.1065C18.0288 15.8983 18.1674 15.7149 18.3661 15.6283L19.662 15.063C20.2438 14.8092 20.6907 14.3284 20.8883 13.7444C21.0859 13.1603 21.0179 12.5189 20.7023 11.985L19.9998 10.7956ZM18.5584 11.5823L19.2609 12.7717C19.3484 12.9196 19.3663 13.0904 19.3115 13.2525C19.2567 13.4146 19.1376 13.5422 18.9769 13.6126L17.681 14.178C16.9537 14.4951 16.4462 15.1663 16.3571 15.9292L16.1985 17.2883C16.1785 17.4575 16.0889 17.606 15.9455 17.7058C15.8022 17.8055 15.6278 17.842 15.4544 17.8081L14.0605 17.533C13.2784 17.379 12.4573 17.6353 11.9187 18.2022L10.959 19.2123C10.8394 19.3379 10.6766 19.4073 10.499 19.4073C10.3214 19.4073 10.1585 19.3379 10.0389 19.2123L9.07922 18.2022C8.64445 17.7443 8.02522 17.4889 7.39071 17.4889C7.23946 17.4889 7.08768 17.5036 6.93749 17.533L5.54356 17.8081C5.37018 17.8425 5.19574 17.8061 5.0524 17.7058C4.90905 17.606 4.81946 17.4575 4.79944 17.2883L4.64081 15.9292C4.55175 15.1663 4.04424 14.4951 3.31698 14.178L2.02108 13.6126C1.85982 13.5422 1.74071 13.4146 1.68591 13.2525C1.6311 13.0904 1.64902 12.9202 1.7365 12.7717L2.43899 11.5823C2.83319 10.9146 2.83319 10.0854 2.43899 9.41771L1.7365 8.22827C1.64902 8.08035 1.6311 7.90964 1.68591 7.74753C1.74071 7.58543 1.85982 7.45777 2.02055 7.38736L3.31645 6.82202C4.04372 6.50491 4.55069 5.8337 4.64028 5.0708L4.79891 3.71166C4.81894 3.54247 4.90853 3.39404 5.05187 3.29425C5.19522 3.19395 5.36965 3.15798 5.54304 3.19192L6.93696 3.46699C7.71956 3.62099 8.5401 3.36517 9.0787 2.79781L10.0384 1.7877C10.158 1.66207 10.3208 1.59267 10.4984 1.59267C10.676 1.59267 10.8389 1.66207 10.958 1.7877L11.9177 2.79781C12.4563 3.36466 13.2768 3.62099 14.0594 3.46699L15.4533 3.19192C15.6267 3.15798 15.8011 3.19395 15.9445 3.29425C16.0878 3.39455 16.1774 3.54247 16.1974 3.71166L16.3561 5.0708C16.4451 5.8337 16.9526 6.50491 17.6799 6.82202L18.9758 7.38736C19.1371 7.45777 19.2562 7.58543 19.3105 7.74753C19.3653 7.90964 19.3473 8.07985 19.2599 8.22827L18.5574 9.41771C18.1632 10.0854 18.1632 10.9146 18.5574 11.5823H18.5584Z" fill="#00C1FF"/>
<path d="M13.6141 7.37293L8.86632 11.9366L7.38544 10.5132C7.06186 10.2021 6.53697 10.2021 6.21339 10.5132C5.88981 10.8242 5.88981 11.3288 6.21339 11.6398L8.28029 13.6266C8.44208 13.7821 8.65394 13.8601 8.86632 13.8601C9.0787 13.8601 9.29056 13.7821 9.45235 13.6266L14.7861 8.49954C15.1097 8.18851 15.1097 7.68396 14.7861 7.37293C14.4626 7.06189 13.9377 7.06189 13.6141 7.37293Z" fill="#00C1FF"/>
</g>
<defs>
<clipPath id="clip0_169_2460">
<rect width="21" height="21" fill="white"/>
</clipPath>
</defs>
</svg>
